
<svg xmlns="http://www.w3.org/2000/svg" xmlns:xlink="http://www.w3.org/1999/xlink" viewBox="0 0 393 128" style="fill: rgb(255, 255, 255);" original_string_length="4253"><path d="M287.698 1.096c-11.394 2.681-23.168 11.68-28.589 21.851-1.775 3.329-3.373 6.053-3.553 6.053s-1.616-.672-3.192-1.494c-1.575-.821-5.244-1.496-8.154-1.5-11.277-.013-19.441 8.036-19.441 19.167 0 3.095-.432 4.827-1.203 4.827-4.052 0-11.851 3.499-16.064 7.207-6.188 5.447-9.479 12.397-9.492 20.043L198 83h125.683l1.159-3.866c.637-2.126 1.158-4.624 1.158-5.55 0-2.86-2.728-7.139-5.297-8.31-1.544-.703-15.436-1.384-37.609-1.843-24.867-.515-35.054-1.05-34.796-1.829.254-.762 11.294-1.256 35.784-1.602 31.692-.447 35.867-.696 39.684-2.365 5.745-2.511 11.468-9.27 14.204-16.773 1.991-5.461 2.111-6.651 1.03-10.269-6.315-21.139-29.695-34.582-51.302-29.497m55.793 35.117c-1.597 4.336-3.471 11.616-3.48 13.521-.006 1.229 1.255 3.651 2.801 5.382 2.577 2.884 3.52 3.215 11.25 3.953 4.641.443 9.211.833 10.157.868 1.022.038 1.508.612 1.198 1.419-.364.949-3.335 1.524-9.882 1.915-11.087.661-16.614 2.777-21.352 8.173-3.084 3.513-5.183 7.409-5.183 9.621 0 .556 10.51.935 25.921.935h25.92l.716-3.25c1.29-5.857.61-14.229-1.645-20.255-3.031-8.101-12.25-17.47-19.912-20.237-7.482-2.701-15.883-3.742-16.509-2.045M14.685 97.051C.682 99.456-2.721 118.667 9.604 125.734c4.453 2.552 10.004 2.889 14.678.889 3.425-1.465 8.022-5.978 9.04-8.873.52-1.48-.01-1.75-3.446-1.75-2.546 0-5.009.746-6.603 2-5.289 4.16-12.273.852-12.273-5.814 0-6.757 7.494-9.798 12.564-5.099 2.544 2.357 10.436 2.727 10.436.49 0-1.819-4.572-7.278-7.334-8.756-3.389-1.814-7.872-2.476-11.981-1.77m69.589.985c-11.594 5.896-11.548 22.264.079 27.893 5.495 2.66 9.146 2.615 14.677-.179 5.905-2.983 8.97-7.682 8.97-13.75 0-11.937-12.845-19.496-23.726-13.964m196.28 1.155c-.767 1.82-3.68 8.636-6.474 15.148-2.794 6.511-5.08 12.023-5.08 12.25 0 .226 1.953.411 4.339.411 3.659 0 4.519-.392 5.479-2.5 1.026-2.253 1.719-2.5 7-2.5s5.974.247 7 2.5c.971 2.13 1.808 2.5 5.661 2.5 2.486 0 4.521-.183 4.521-.408s-2.856-7.086-6.346-15.25L290.309 96.5l-4.181-.309c-3.899-.288-4.275-.086-5.574 3M43.667 97.667c-.367.366-.667 7.116-.667 15V127h24v-7H52V97h-3.833c-2.109 0-4.134.3-4.5.667m74.518 10.083c.469 12.389 1.905 16.116 7.172 18.615 4.678 2.22 11.405 2.077 15.344-.325 5.143-3.135 6.299-6.529 6.299-18.49V97h-9v10.3c0 11.137-.621 12.7-5.045 12.7-4.8 0-5.955-2.586-5.955-13.329V97h-9.221zM160 112v15l8.75-.016c7.206-.014 9.437-.411 12.646-2.25 7.26-4.163 9.541-12.515 5.42-19.848C183.624 99.207 178.41 97 168.184 97H160zm41 0v15h8v-11h15.127l-.314-3.25-.313-3.25-7.314-.295c-6.895-.278-7.295-.421-7-2.5.289-2.027.941-2.229 8.064-2.497l7.75-.292V97h-24zm36 0v15h23v-6.912l-7.25-.294-7.25-.294-.283-11.25-.283-11.25H237zm77-.091V127h9v-4.5c0-3.247.4-4.5 1.438-4.5.791 0 2.892 2.025 4.669 4.5 3.068 4.272 3.478 4.5 8.089 4.5h4.857l-3.446-5.117-3.446-5.117 2.481-2.135c1.607-1.382 2.676-3.582 3.032-6.241.479-3.566.153-4.553-2.477-7.498l-3.029-3.392-10.584-.341L314 96.818zm39 .091v15h25v-6.919l-8.239-.291c-6.914-.243-8.293-.571-8.573-2.04-.295-1.542.565-1.75 7.239-1.75H376v-8h-7.5c-6.833 0-7.5-.178-7.5-2 0-1.843.667-2 8.5-2h8.5v-7h-25zm31.97-13.464c-1.816 2.189-.062 4.964 3.139 4.964 1.99 0 2.391-.503 2.391-3 0-2.28-.501-3.072-2.088-3.298-1.148-.164-2.697.436-3.442 1.334m3.005.122c.564.28 1.018 1.259 1.01 2.175-.014 1.442-.147 1.464-.985.167-.819-1.268-.972-1.216-.985.333-.008 1.027.535 1.65 1.235 1.417 1.638-.546 1.618-4.009-.025-4.342-.701-.142-.814-.029-.25.25m-2.896 1.925c.048 1.165.285 1.402.604.605.289-.722.253-1.585-.079-1.917s-.568.258-.525 1.312M87.736 105.25c-7.026 5.335-.195 17.194 7.804 13.55 4.572-2.083 5.269-10.419 1.115-13.329-2.569-1.8-6.705-1.902-8.919-.221M168 111.5v7.5h3.927c3.052 0 4.39-.587 6-2.635 2.374-3.017 2.525-4.278.935-7.768-1.114-2.445-5.332-4.597-9.011-4.597-1.637 0-1.851.868-1.851 7.5m155-3.057c0 3.91 1.446 4.479 6.504 2.555 1.947-.74 2.551-1.588 2.315-3.25-.265-1.868-1.037-2.3-4.569-2.555l-4.25-.308zm-38.27 1.307a41 41 0 0 1-1.224 3.5c-.598 1.453-.175 1.75 2.494 1.75s3.092-.297 2.494-1.75a41 41 0 0 1-1.224-3.5c-.277-.963-.848-1.75-1.27-1.75s-.993.787-1.27 1.75" fill-rule="evenodd" style="fill: inherit;"/></svg>