
<svg xmlns="http://www.w3.org/2000/svg" xmlns:xlink="http://www.w3.org/1999/xlink" viewBox="0 0 1208 680" style="fill: rgb(255, 255, 255);" original_string_length="3013"><path d="M968 339.5v191.526l34.75-.263 34.75-.263v-382l-34.75-.263-34.75-.263zM118 190v36h73v-72h-73zm407.297 118.25c.419 151.56.213 145.563 5.753 167.25 4.28 16.753 13.991 31.487 27.086 41.1 9.894 7.263 27.801 13.048 47.364 15.302 7.038.811 28.967 1.487 37.25 1.149.973-.04 1.25-7.115 1.25-31.902v-31.852l-11.25-.579c-14.537-.749-20.698-2.158-26.465-6.054-5.115-3.456-8.555-9.185-10.423-17.36-.693-3.031-1.271-25.379-1.566-60.554l-.468-55.75H644v-59h-50V168h-69.09zm-156.831-43.231c-27.538 2.791-50.992 15.682-68.79 37.808L297 306.153V270h-68.5l.242 130.25.242 130.25 34.008.263 34.008.263.008-67.763c.009-69.636.44-79.556 4.08-93.763 5.402-21.091 21.748-37.866 42.025-43.129 13.02-3.379 33.767-1.506 44.705 4.037 12.819 6.496 20.398 15.797 26.151 32.092l3.531 10 .5 78.751c.275 43.313.837 78.75 1.25 78.75l34.802-.001h34.051l-.388-85.25c-.422-92.836-.368-91.893-6.344-110.25-9.204-28.27-26.827-49.085-50.728-59.916-16.811-7.619-42.458-11.564-62.177-9.565m409.88 1.113c-29.319 4.215-59.6 20.074-79.264 41.514-16.847 18.368-28.942 42.034-33.77 66.079-2.695 13.418-2.42 42.342.533 56.077 8.809 40.984 33.671 73.501 70.118 91.709 10.424 5.208 28.673 10.993 40.656 12.888 12.871 2.036 35.481 2.068 48.945.069 32-4.752 59.543-18.354 82.686-40.835 4.263-4.141 7.75-7.984 7.75-8.54 0-.557-10.964-9.331-24.363-19.5l-24.364-18.487-4.886 4.595c-23.505 22.103-60.206 30.042-91.165 19.721-18.305-6.103-33.928-21.627-40.246-39.993-1.087-3.158-1.976-6.122-1.976-6.586 0-.463 45.9-.843 102-.843h102v-18.122c0-22.15-1.772-35.078-6.981-50.943-6.639-20.219-17.001-37.002-32.456-52.572-19.687-19.833-43.126-31.492-72.063-35.847-10.804-1.625-33.137-1.824-43.154-.384M120 400.5V531h69V270h-69zm659.561-74.85c-23.496 5.036-42.617 20.855-48.597 40.205-3.489 11.291-11.771 10.118 66.786 9.456 37.813-.319 68.937-.744 69.165-.944.9-.788-3.226-13.16-6.019-18.044-8.789-15.373-26.196-27.181-45.524-30.879-9.546-1.826-26.791-1.727-35.811.206m304.892 156.676c-18.399 7.089-23.233 28.009-9.689 41.93 3.811 3.918 12.256 7.744 17.092 7.744 10.672 0 21.579-7.973 24.533-17.932 1.998-6.735 2.004-8.382.055-14.946-3.923-13.21-19.742-21.515-31.991-16.796m-.453 4.992c-9.43 4.926-12.425 10.158-11.831 20.669.333 5.898.837 7.453 3.467 10.707 3.89 4.813 7.846 7.136 13.461 7.906 13.645 1.87 25.355-9.733 23.346-23.132-.964-6.431-5.23-12.537-10.63-15.218-5.177-2.57-13.812-3.022-17.813-.932M1082 506v15h6v-6c0-8.166 2.242-8.163 6.948.011 2.921 5.073 3.877 5.989 6.25 5.989 1.541 0 2.802-.232 2.802-.515s-1.35-2.907-3-5.831c-3.416-6.053-3.557-6.654-1.557-6.654 2.075 0 4.557-3.969 4.557-7.288 0-6.666-4.852-9.712-15.468-9.712H1082zm6-6c0 3.887.097 4 3.418 4 4.928 0 6.582-.898 6.582-3.572 0-2.759-2.613-4.428-6.934-4.428-2.91 0-3.066.203-3.066 4" fill-rule="evenodd" style="fill: inherit;"/></svg>