
<svg xmlns="http://www.w3.org/2000/svg" xmlns:xlink="http://www.w3.org/1999/xlink" viewBox="0 0 800 540" style="fill: rgb(255, 255, 255);" original_string_length="3973"><path d="M148 217.5v8.5h-2.812c-8.116 0-28.521 7.565-41.1 15.238-7.903 4.821-23.04 16.474-23.728 18.266-.703 1.833 6.582 15.856 12.206 23.496 13.154 17.868 32.183 30.118 50.684 32.627l4.75.645V331h115V209H148zm2.25 8.206c-1.861.358-2.25 1.088-2.25 4.217v3.784l7.583.641c14.573 1.231 28.825 8.314 40.351 20.054l5.435 5.534-5.025 5.782c-14.511 16.699-31.7 26.01-43.233 23.418-4.752-1.068-5.498-.383-4.936 4.53.323 2.815.379 2.836 8.169 3.128 9.052.339 15.739-1.3 25.629-6.281 8.996-4.53 21.895-14.264 30.747-23.203l7.357-7.429-2.301-2.735c-8.263-9.82-24.515-21.369-36.567-25.985-10.498-4.021-25.069-6.588-30.959-5.455m143 5.956c-.971.392-1.25 9.424-1.25 40.421V312h24v-60l11.25.002c13.378.001 17.001 1.348 20.181 7.498 1.895 3.664 2.095 6.043 2.384 28.281l.314 24.281 11.5-.281 11.501-.281-.095-26.668c-.1-28.475-.712-33.09-5.287-39.878-3.076-4.564-9.969-9.667-14.824-10.974-7.489-2.017-20.406-2.965-39.424-2.893-10.45.039-19.562.298-20.25.575M376 232.75c-.001.667 9.448 30.186 21.286 66.5l4.156 12.75h33.403l1.013-3.25c.557-1.788 6.217-19.25 12.577-38.806S460 233.837 460 233.163c0-.915-2.964-1.155-11.652-.945l-11.652.282-1.754 5.5c-.965 3.025-5.008 16.525-8.984 30s-7.327 24.622-7.447 24.77c-.12.149-3.423-11.101-7.341-25s-7.826-27.633-8.685-30.52l-1.562-5.25h-12.462c-6.853 0-12.461.338-12.461.75M469 272v40.063l11.75-.281 11.75-.282v-79l-11.75-.282-11.75-.281zm36-.015v40.158l27.25-.321c27.099-.32 27.28-.337 32.75-2.965 12.641-6.076 17.951-16.574 17.985-35.558.036-20.082-6.923-32.966-20.764-38.44-5.307-2.098-7.586-2.29-31.471-2.648l-25.75-.385zm87.988-39.485c-.007.275-.018 18.162-.026 39.75l-.013 39.25 11.525.282 11.526.281V232h-11.5c-6.325 0-11.505.225-11.512.5m57.343 12.75c-2.818 7.287-9.497 24.275-14.841 37.75s-9.946 25.528-10.227 26.784l-.509 2.284 11.373-.284 11.373-.284 2.368-6.75 2.369-6.75h36.369l2.255 7 2.254 7h12.55c11.531 0 12.496-.142 11.902-1.75-.357-.962-7.469-18.962-15.807-40L686.601 232h-31.145zM136 236.571c-10.09 2.641-21.24 8.909-29.395 16.524-4.183 3.906-7.605 7.934-7.605 8.95 0 2.477 6.987 15.853 11.063 21.179 9.626 12.578 20.967 20.057 35.187 23.205 2.488.551 2.75 1.026 2.75 4.979 0 4.187.143 4.396 3.44 5.015 9.45 1.773 39.381-3.726 59.838-10.993C227.439 299.69 248 289.102 248 286.521c0-1.021-3.486-3.31-15.158-9.952l-4.657-2.651-9.326 7.483C196.906 299.017 177.72 307 157.34 307H148v-9.77l-5.219-1.707c-11.505-3.763-21.253-12.703-27.28-25.02l-3.424-6.998 3.712-3.817c4.721-4.857 17.874-11.421 25.966-12.959l6.245-1.187V235l-3.25.066c-1.787.036-5.725.713-8.75 1.505m12.75 8.99c-.412.425-.75 2.722-.75 5.106 0 4.217-.087 4.334-3.25 4.355-4.024.027-10.202 2.845-14.513 6.621l-3.263 2.857 2.382 5.065c1.309 2.786 3.903 6.801 5.762 8.922 3.456 3.941 10.504 9.513 12.032 9.513.468 0 .85-7.425.85-16.5 0-18.665-.229-18.241 7.76-14.374 3.282 1.589 5.541 3.854 8.94 8.966l4.549 6.841 7.375-6.101c4.057-3.356 7.376-6.438 7.376-6.85 0-1.76-8.758-8.442-14.726-11.234-6.444-3.016-18.823-4.938-20.524-3.187m515.426 20.184c-3.419 9.215-6.207 17.092-6.196 17.505.03 1.121 25.02.921 25.02-.2 0-1.269-11.178-32.341-11.981-33.305-.345-.415-3.425 6.785-6.843 16M528 272v22l8.25-.01c10.413-.012 17.242-2.814 20.77-8.522 3.454-5.589 3.979-17.278 1.077-24.012-3.525-8.182-10.053-11.456-22.84-11.456H528zm195.943 30.057c-1.478 1.478-1.971 3.069-1.75 5.651.636 7.441 9.98 9.726 13.324 3.258 1.972-3.813 1.874-5.199-.59-8.331-2.621-3.332-7.949-3.613-10.984-.578m1.712 1.772c-.91 1.006-1.655 2.548-1.655 3.428 0 2.25 2.753 4.743 5.238 4.743 1.152 0 1.764-.332 1.358-.737-.405-.406-1.493-.743-2.417-.75-2.415-.019-2.945-6.282-.607-7.179 2.602-.998 4.969 1.068 4.64 4.051-.158 1.438.179 2.615.75 2.615s1.038-1.334 1.038-2.965c0-4.684-5.2-6.682-8.345-3.206" fill-rule="evenodd" style="fill: inherit;"/></svg>