
<svg xmlns="http://www.w3.org/2000/svg" xmlns:xlink="http://www.w3.org/1999/xlink" viewBox="0 0 630 340" style="fill: rgb(255, 255, 255);" original_string_length="3177"><path d="M66.945 126.409c-7.042 2.677-12.315 5.857-17.046 10.282-4.567 4.272-10.898 12.925-10.9 14.897 0 .535 12.382.797 30 .633 16.501-.153 30.001-.113 30.001.088 0 .202-2.025 14.465-4.501 31.695-2.475 17.231-4.331 31.498-4.123 31.705.609.609 10.245-3.297 14.986-6.075 11.634-6.818 21.516-23.454 21.614-36.384L127 170h-23.613l1.241-8.75c.682-4.812 1.27-8.853 1.306-8.978s3.891-.125 8.567 0c4.675.125 8.5-.183 8.5-.684-.002-2.001-6.364-10.654-11.069-15.055-2.742-2.565-8.011-6.096-11.709-7.848-6.206-2.94-7.608-3.202-18.223-3.406-7.729-.148-12.665.222-15.055 1.13M397.93 153.75c-3.101 1.571-6.371 4.175-7.629 6.073-4.92 7.431-3.761 18.136 2.621 24.214 4.613 4.393 9.685 5.966 19.194 5.953 14.747-.019 23.384-7.218 23.384-19.49 0-12.515-8.592-19.471-24.071-19.49-6.833-.009-8.902.412-13.499 2.74m112.614-1.161c-8.376 3.067-13.002 10.403-12.339 19.567.748 10.336 8.352 16.88 20.531 17.671 12.658.821 20.999-2.452 25.172-9.877 2.503-4.454 2.833-13.616.643-17.851-2.106-4.073-7.923-8.831-12.274-10.039-5.313-1.475-17.037-1.19-21.733.529m-360.78.161c-.195.412-.334 2.325-.309 4.25l.045 3.5 7.75.292 7.75.292V189h11v-28h15v-9h-20.441c-11.243 0-20.6.338-20.795.75m43.236-.381c0 .258 2.925 8.468 6.5 18.245s6.5 17.936 6.5 18.131 2.549.22 5.665.055l5.666-.3 3.809-11.391c2.095-6.266 3.999-11.581 4.231-11.813s2.193 4.895 4.358 11.391l3.938 11.813h11.495l6.419-17.488c3.53-9.618 6.419-17.831 6.419-18.25s-2.457-.762-5.461-.762h-5.461l-3.847 12.25-3.846 12.25-4.329-12.25-4.328-12.25h-10.274l-3.977 11.972c-2.187 6.584-4.202 11.98-4.477 11.99s-2.076-5.265-4.001-11.722l-3.502-11.74-5.748-.3c-3.162-.165-5.749-.089-5.749.169m69 18.131V189h11v-37h-11zm18 0V189h11l.047-11.75.046-11.75 11.308 11.75L313.708 189H324v-37h-11v21.859l-10.658-10.929L291.683 152H280zm51 0V189h10.934l.283-11.116.283-11.116 6.923 8.74c5.552 7.009 7.136 8.459 8 7.323.592-.78 3.777-4.739 7.077-8.799l6-7.38.283 11.174.283 11.174H382v-37h-11.75l-6.16 7.962c-3.388 4.38-6.534 8.194-6.992 8.477-.457.283-3.82-3.3-7.472-7.962L342.985 152H331zm106-14.02V161h15v28h11v-27.916l7.669-.292 7.67-.292-.002-4-.002-4-20.668-.27-20.667-.271zm45 14.02V189h11v-37h-11zm69 0V189h11v-23.469l11.765 11.735c11.701 11.67 11.791 11.734 16.5 11.734H595v-37.105l-5.25.303-5.25.302v21.76l-10.639-11.13L563.222 152H551zm-146.671-9.042c-3.832 1.666-5.329 4.207-5.329 9.042 0 4.917 1.516 7.4 5.548 9.085 6.496 2.714 16.035.93 18.372-3.435.594-1.11 1.08-3.653 1.08-5.65s-.486-4.54-1.08-5.65c-2.333-4.359-12.221-6.163-18.591-3.392m109.896.487c-5.906 3.708-6.682 11.398-1.629 16.145 2.206 2.073 3.544 2.41 9.567 2.41 6.643 0 7.15-.167 9.919-3.266 3.917-4.384 3.941-9.058.067-13.394-2.482-2.777-3.616-3.24-8.75-3.571-4.674-.3-6.579.048-9.174 1.676M35 174.032c0 5.235 3.371 15.236 7.119 21.12 3.761 5.904 11.35 13.026 16.892 15.853 5.308 2.709 12.151 5.166 12.741 4.576.736-.735 6.98-44.515 6.429-45.067-.283-.283-10.114-.514-21.848-.514H35z" fill-rule="evenodd" style="fill: inherit;"/></svg>