<svg xmlns="http://www.w3.org/2000/svg" xmlns:xlink="http://www.w3.org/1999/xlink" viewBox="0 0 85.46 56.1"><defs><clipPath id="clip-path" transform="translate(-8.37 -0.51)"><rect width="102" height="57.75" style="fill:none"/></clipPath></defs><g id="Layer_2" data-name="Layer 2"><g id="Layer_1-2" data-name="Layer 1"><g style="clip-path:url(#clip-path)"><path d="M85.31,43.42a5.21,5.21,0,0,0-.24,10.32,4.64,4.64,0,0,0,1.44,0,5.11,5.11,0,0,0,3.73-2.63,5.47,5.47,0,0,0,.61-3.06,5.2,5.2,0,0,0-2.19-3.75,5.06,5.06,0,0,0-3.35-.89m-36.69,0a5.39,5.39,0,0,0-2.3.84,6.57,6.57,0,0,0-1.23,1.19,5.84,5.84,0,0,0-1,2.15,9.17,9.17,0,0,0,0,2,5.23,5.23,0,0,0,3.46,4A5,5,0,0,0,51.92,53a5.21,5.21,0,0,0,2.3-4.56A5.13,5.13,0,0,0,52.79,45a5,5,0,0,0-4.17-1.55m-32.78,0a4.8,4.8,0,0,0-1.68.5,4.44,4.44,0,0,0-1.32.93,5.28,5.28,0,0,0,0,7.46,5,5,0,0,0,6.61.43A5.59,5.59,0,0,0,20.9,51a5.4,5.4,0,0,0,0-4.69,5.06,5.06,0,0,0-5.08-2.86M67.5,40.68a5.35,5.35,0,0,0-3,1.7l-.24.31,0-.2a1.5,1.5,0,0,0-.44-.83,2,2,0,0,0-1.62-.5h-.57l-.14.15-.15.14v7.27c0,6.18,0,7.28.06,7.38s.19.24,1.43.24c1.06,0,1.14,0,1.24-.08a.47.47,0,0,0,.16-.19c0-.06,0-1.45,0-4.45s0-4.47,0-4.69a4,4,0,0,1,5-3.36,4.09,4.09,0,0,1,2.89,3c.09.31.09.39.11,4.87,0,3.16,0,4.59,0,4.67a.49.49,0,0,0,.16.19c.11.07.23.08,1.25.08,1.23,0,1.28,0,1.41-.23s.07-.5.07-4.6c0-2.86,0-4.62,0-4.89A7.28,7.28,0,0,0,74.44,44a5.65,5.65,0,0,0-1.23-1.67A6.23,6.23,0,0,0,70,40.76a8.72,8.72,0,0,0-2.53-.08m17.58-.08a8,8,0,0,0-7.24,6.8,9.72,9.72,0,0,0,0,2.41,8.07,8.07,0,0,0,3.47,5.45,7.79,7.79,0,0,0,4.46,1.36,6.77,6.77,0,0,0,4.77-1.73l.35-.35,0,.16a2.88,2.88,0,0,0,1.22,1.46,1.47,1.47,0,0,0,.76.15c.53,0,.68,0,.82-.19s.09-.22.09-7.41v-7.3l-.15-.14-.14-.15H92.4a3.84,3.84,0,0,0-1.26.07c-.2.1-.25.28-.25.92v.56l-.35-.35a6.33,6.33,0,0,0-3.87-1.71,10.61,10.61,0,0,0-1.59,0m-36.87,0a8.42,8.42,0,0,0-3.39,1.21,8.6,8.6,0,0,0-2.57,2.63,8.69,8.69,0,0,0-1,2.62,6.1,6.1,0,0,0-.1,1.53,6,6,0,0,0,.39,2.55,8,8,0,0,0,6.08,5.33,10.38,10.38,0,0,0,2.43.09A6.63,6.63,0,0,0,54,54.81a3.18,3.18,0,0,1,.28-.28s0,0,0,.08A2.53,2.53,0,0,0,55,55.79a1.71,1.71,0,0,0,1.49.52c.41,0,.42,0,.56-.15L57.2,56V48.75c0-7.89,0-7.41-.24-7.56s-.27-.07-1.23-.07c-1.5,0-1.46,0-1.48.93l0,.6L54,42.36A6.16,6.16,0,0,0,51,40.78a9,9,0,0,0-2.81-.16m-15.72,0a7.31,7.31,0,0,0-2.34.67A4.36,4.36,0,0,0,27.84,44a6.42,6.42,0,0,0-.07,2,4.9,4.9,0,0,0,3.59,3.4l1.45.4c1.79.47,2.5.75,2.92,1.17a1,1,0,0,1,.39.92,1.06,1.06,0,0,1-.12.62,3.12,3.12,0,0,1-3.2,1.22,7.63,7.63,0,0,1-3.32-1.18c-.44-.29-.62-.32-.81-.14a16.84,16.84,0,0,0-1.28,1.86c-.05.25.09.42.58.74a9.86,9.86,0,0,0,4.33,1.53,11.36,11.36,0,0,0,2.58-.09,5.31,5.31,0,0,0,3.86-2.7,3.37,3.37,0,0,0,.41-1.9,4.07,4.07,0,0,0-.08-1.08,3.56,3.56,0,0,0-.93-1.66c-.86-.91-2.11-1.49-4.73-2.18a4.79,4.79,0,0,1-2.31-1,1.08,1.08,0,0,1-.35-1c.07-1.07,1.17-1.68,2.91-1.6a4.91,4.91,0,0,1,2.62.82c.34.22.49.25.69.16a6.42,6.42,0,0,0,.74-.94c.57-.81.63-.92.63-1.08s-.07-.3-.45-.55a8.86,8.86,0,0,0-3.63-1.21,9.51,9.51,0,0,0-1.77,0m-17.05,0A8,8,0,0,0,10.66,43a7.86,7.86,0,0,0-2.17,4,5.52,5.52,0,0,0-.12,1.58,6.28,6.28,0,0,0,.22,2.07,8,8,0,0,0,4.16,5.13,7.47,7.47,0,0,0,3.33.84,7.06,7.06,0,0,0,3.61-.74,5.12,5.12,0,0,0,1.51-1c.21-.23.27-.27.29-.21a2.61,2.61,0,0,0,.73,1.17,1.71,1.71,0,0,0,1.5.53c.37,0,.43,0,.53-.12a.58.58,0,0,0,.15-.25c0-.1,0-2.5,0-7.33,0-7.8,0-7.27-.25-7.42a10.65,10.65,0,0,0-2.46,0c-.21.11-.26.29-.26.92v.56l-.29-.3a6.39,6.39,0,0,0-3.35-1.67,11.25,11.25,0,0,0-2.38-.07M59.69,16.35a7.06,7.06,0,0,0-6.11,5.1,7.47,7.47,0,0,0-.15,3.11,7,7,0,0,0,13.3,1.74,7.42,7.42,0,0,0,.66-3,8.94,8.94,0,0,0-.19-1.6,7.79,7.79,0,0,0-.9-2.15,8,8,0,0,0-1.9-2,7.15,7.15,0,0,0-4.71-1.24m-18.12,0a7,7,0,0,0-3.45,1.21,8.11,8.11,0,0,0-1.77,1.74,7.08,7.08,0,0,0-1.27,4.62,6,6,0,0,0,.24,1.36,7,7,0,0,0,5.55,5,7.85,7.85,0,0,0,2.32,0,7,7,0,0,0,5.42-9.54,7,7,0,0,0-3.42-3.7,6.72,6.72,0,0,0-1.85-.62,9.22,9.22,0,0,0-1.77-.1M50,.59a7.08,7.08,0,0,0-5.49,4.7,5.88,5.88,0,0,0-.34,2.22,5.64,5.64,0,0,0,.25,1.94,7,7,0,0,0,5.67,5,10.3,10.3,0,0,0,2.15,0,7.06,7.06,0,0,0,5.17-3.71,6.57,6.57,0,0,0,.78-3,5.26,5.26,0,0,0-.07-1.32,6.93,6.93,0,0,0-2-3.84,6.8,6.8,0,0,0-3.9-2A9.33,9.33,0,0,0,50,.59" transform="translate(-8.37 -0.51)" style="fill:#fff;fill-rule:evenodd"/></g></g></g></svg>