<svg xmlns="http://www.w3.org/2000/svg" xmlns:xlink="http://www.w3.org/1999/xlink" viewBox="0 0 43.33 51.95"><defs><clipPath id="clip-path" transform="translate(-24.82 -19.4)"><rect width="92.25" height="92.25" style="fill:none"/></clipPath></defs><g id="Layer_2" data-name="Layer 2"><g id="Layer_1-2" data-name="Layer 1"><g style="clip-path:url(#clip-path)"><path d="M32.53,53.41l-2.45,1.88-2.69,2.05-1,.76-1.57,1.2a13.93,13.93,0,0,0,1.11,1.42c4.66,5.57,10,9,15.91,10.17a21.44,21.44,0,0,0,4.24.45A23,23,0,0,0,56.93,69a26.77,26.77,0,0,0,6.25-4.22c.59-.52,2.29-2.24,2.95-3s1.58-1.91,1.88-2.32l.14-.2-.6-.44c-.33-.24-.68-.5-.77-.58l-1-.74c-1.93-1.41-3.08-2.26-4.93-3.63-.39-.29-.73-.53-.76-.54s-.26.24-.53.59a21,21,0,0,1-6.24,5.64,14.06,14.06,0,0,1-4.59,1.58,19.79,19.79,0,0,1-3.45.09c-4.5-.46-8.25-2.8-12.07-7.54a3.59,3.59,0,0,0-.42-.47,2.21,2.21,0,0,0-.26.2M45.17,20.64l-4.32,3.72L40,25.1,38.5,26.37l-2.61,2.25-1.35,1.16s-.37.33-.81.7l-1.5,1.29-2.85,2.45-2.27,2-.72.62a6.53,6.53,0,0,0-.59.55,9.21,9.21,0,0,0,1.13,1.37l1.18,1.37,3.6,4.17a6.08,6.08,0,0,0,.65.69.59.59,0,0,0,.2-.14l1.15-1,1.65-1.42,7.55-6.5,1.34-1.16.46-.39.32-.28.7-.6.75-.64.1-.09.8.69,1.19,1,.7.6,2.5,2.17,1.32,1.15,1.41,1.22,1.44,1.25.86.74.4.35.94.82,1.66,1.44.88.76.81-.93,1-1.21c.21-.26,1-1.15,1.59-1.83.31-.35.84-1,1.07-1.24s.26-.31.59-.68a.58.58,0,0,0,.17-.27s0,0,0,0,.31-.23.76-.79c.06-.08.21-.26.33-.39a1.38,1.38,0,0,0,.21-.24l-.17-.14c-.08-.08-.14-.11-.12-.08s0,.06,0,0a.09.09,0,0,1-.06-.07,3.78,3.78,0,0,0-.78-.75c-.2-.16-.43-.36-.5-.43s-.16-.11-.19-.09,0,0,0,0-.26-.33-.71-.69l-.58-.5L63.4,34,62,32.74c-.63-.55-1.43-1.25-1.79-1.55l-.87-.77c-.13-.12-.69-.61-1.25-1.08l-1-.9s-1.71-1.5-2.29-2l-1-.83-1-.91-1.23-1.07L49.55,22l-1-.9-.74-.65-.92-.8-.23-.2-1.45,1.24" transform="translate(-24.82 -19.4)" style="fill:#fff;fill-rule:evenodd"/></g></g></g></svg>