<svg xmlns="http://www.w3.org/2000/svg" xmlns:xlink="http://www.w3.org/1999/xlink" viewBox="0 0 169.33 33.16"><defs><clipPath id="clip-path" transform="translate(-31.49 -19.69)"><rect width="232.5" height="72.75" style="fill:none"/></clipPath></defs><g id="Layer_2" data-name="Layer 2"><g id="Layer_1-2" data-name="Layer 1"><g style="clip-path:url(#clip-path)"><path d="M50.76,40.68c-.16.09-1.09.68-2.06,1.3a16.85,16.85,0,0,1-1.91,1.14.2.2,0,0,0-.19.12A17.37,17.37,0,0,1,45,44.32c-3.25,2.06-3.63,2.31-3.62,2.41a28.51,28.51,0,0,0,2.5,1.66c4.72,3,5.55,3.5,5.6,3.62a.23.23,0,0,0,.19.12,2.34,2.34,0,0,1,.67.36,2.22,2.22,0,0,0,.74.36,5.87,5.87,0,0,0,1.24-.68c.57-.37,1.16-.75,1.32-.84s.75-.46,1.31-.83c1.39-.92,5.6-3.58,5.79-3.66s-.6-.8-.82-.81-2.36-1.42-5-3.12c-1.48-1-3.81-2.4-3.87-2.4l-.34.17m84.79-7.09c-1.56.73-2.39,2.43-2.39,4.88,0,2.92,1.63,4.88,4.06,4.87a4.22,4.22,0,0,0,2.78-1c1.74-1.66,1.67-6.37-.12-8.06a4.08,4.08,0,0,0-4.33-.65m38.85-.32a4,4,0,0,0-3.05,3.2,9.69,9.69,0,0,0,.13,4.06,3.49,3.49,0,0,0,3.38,2.71,3.57,3.57,0,0,0,3.91-2.1c.47-1,.49-1,.48-2.81a4.79,4.79,0,0,0-.42-2.72,3.82,3.82,0,0,0-4.43-2.34m-18.84,0a3.23,3.23,0,0,0-1.95,1.1,5.89,5.89,0,0,0-1.3,5c.4,2.59,1.73,3.91,3.92,3.92a3.56,3.56,0,0,0,2.69-.89c1-.85,1.28-1.74,1.36-3.77s-.15-3-.88-3.94a4.11,4.11,0,0,0-3.84-1.41m-38.11,0c-1.94.31-3,1.59-3.33,4a7.78,7.78,0,0,0,.38,3.7,4,4,0,0,0,6.63,1,5.26,5.26,0,0,0,1-3.65c0-2.46-.7-3.93-2.23-4.67a3.68,3.68,0,0,0-2.49-.4m66.33-3.17c.09.16,5.27,7.35,5.57,7.73a42.56,42.56,0,0,1-3.08,4.5l-3.19,4.36,2.52,0,2.51,0,.33-.4c.18-.22,1-1.47,1.89-2.76A28.71,28.71,0,0,1,192,41.24s1,1.24,2,2.75l1.92,2.76h2.46a23,23,0,0,0,2.46-.06s-1.36-1.95-3-4.26l-3.13-4.36A34.83,34.83,0,0,1,197.47,34c1.6-2.15,2.91-4,2.91-4a17.63,17.63,0,0,0-2.49,0l-2.49,0-1.61,2.35c-.89,1.29-1.65,2.39-1.7,2.44a19.34,19.34,0,0,1-1.73-2.39l-1.64-2.47h-2.53c-2,0-2.5,0-2.41.18M105.37,30a4.6,4.6,0,0,0-3,2.86c-.09.3-.22.49-.27.43a7.53,7.53,0,0,1-.28-1.49c-.26-2.08,0-1.89-2-1.89H98V46.75h4.33l.05-5,0-5,.43-.87a2.33,2.33,0,0,1,1-1.19,8.36,8.36,0,0,1,3.59-.63h1.13V29.77h-1.27a8.54,8.54,0,0,0-2,.22M82.92,36.22v6.64l2.43,0c2.38-.05,2.45-.06,3.21-.48a4,4,0,0,0,1.83-1.95c.57-1.13.7-2.07.63-4.59a8.26,8.26,0,0,0-.39-3.14,4.87,4.87,0,0,0-2.3-2.55c-.77-.37-1-.4-3.12-.46l-2.29-.05Zm90-6.52c-4.19.9-6.53,4.53-6.19,9.61.3,4.71,2.6,7.21,7.1,7.74,4.9.58,8.64-1.71,9.62-5.89a16.64,16.64,0,0,0-.08-5.8c-.95-3.71-4-5.91-8.23-5.87a13.09,13.09,0,0,0-2.22.21m-36.15,0a6.5,6.5,0,0,0-1.39.56,6.59,6.59,0,0,0-2,2c-.32.69-.44.42-.64-1.49l-.1-.91H129V52.42h4.35V44.24l.41.57a6,6,0,0,0,6,2.25c3.44-.51,5.59-3.08,6-7.17.43-4.53-1-8.28-3.65-9.63a7.77,7.77,0,0,0-5.21-.55m-20.91,0a7.74,7.74,0,0,0-6,6.09,17.84,17.84,0,0,0,0,5.36,7.11,7.11,0,0,0,5.54,5.69,14.75,14.75,0,0,0,5.34,0A7.44,7.44,0,0,0,126.4,41a16.26,16.26,0,0,0,0-5.21,7.54,7.54,0,0,0-6.05-6.09,12.43,12.43,0,0,0-4.47,0M49.42,27c-1,.65-2,1.29-3,1.91-2.34,1.47-5.06,3.25-5,3.28s.88.58,1.92,1.24l4.83,3.07,2.94,1.86,1.27-.8c1.06-.66,2.11-1.33,3.16-2l3.56-2.27,1.71-1.09s-1.45-1-4.62-3l-3.42-2.2a9.89,9.89,0,0,0-1.67-1,9.75,9.75,0,0,0-1.69,1m29,9.33V46.78l5-.06c5.49-.08,5.85-.13,7.73-1a8,8,0,0,0,3.95-4.79c.35-1.07.39-1.41.45-4.11a16.07,16.07,0,0,0-.19-4.06,8.3,8.3,0,0,0-6.1-6.52c-.72-.21-1.73-.26-5.84-.31l-5-.06ZM148,35.46l0,11.22h3.77l.17-1.31c.1-.72.18-1.36.19-1.43s.26.25.57.73a5.59,5.59,0,0,0,3.09,2.24,9.32,9.32,0,0,0,4-.07,6.65,6.65,0,0,0,4.4-4.53,15.88,15.88,0,0,0,.24-7.41c-.9-3.46-3.32-5.43-6.67-5.42a5.53,5.53,0,0,0-5,2.59l-.42.66V24.25H148ZM40.44,20.17l-3.33,2.12-3.67,2.34a9.16,9.16,0,0,1-1.32.78.81.81,0,0,0-.35.25c-.21.24-.12.32,1.38,1.27.89.56,2.14,1.36,2.77,1.78s1.18.76,1.21.76.69.42,1.47.92,1.66,1.07,2,1.25.54.39.54.46a2.73,2.73,0,0,1-.83.66c-1.13.71-2.2,1.4-3.6,2.3-2.92,1.9-4.4,2.84-4.49,2.84a1.15,1.15,0,0,0-.39.27l-.3.28.45.24c.25.13,1,.61,1.72,1.06s1.39.9,1.53,1l3.18,2c2.78,1.79,2.93,1.87,3.26,1.67s1.67-1.05,3.29-2.08l4.49-2.87a12.82,12.82,0,0,1,1.7-1c.17,0,4.76,2.88,8.88,5.56a5,5,0,0,0,.93.53c.11,0,3.68-2.24,7.29-4.59.89-.58,1.83-1.16,2.08-1.29l.46-.24-.3-.28a1.15,1.15,0,0,0-.39-.27c-.09,0-1.57-.94-4.49-2.84-1.4-.9-2.47-1.59-3.6-2.3a2.73,2.73,0,0,1-.83-.66c0-.07.24-.28.54-.46s1.18-.74,2-1.25,1.44-.92,1.47-.92.57-.34,1.21-.76,1.88-1.22,2.77-1.78c1.5-.95,1.59-1,1.38-1.27a.76.76,0,0,0-.35-.25,12.64,12.64,0,0,1-1.54-.92c-.78-.51-2.43-1.56-3.67-2.34l-3.1-2a2.26,2.26,0,0,0-1-.46l-1.59,1c-.78.5-1.44.91-1.47.91s-.77.48-1.66,1.06c-3.59,2.35-4.69,3-5,3s-1.43-.71-5.18-3.16c-.76-.5-1.42-.91-1.45-.91s-.69-.41-1.47-.91l-1.57-1a2.23,2.23,0,0,0-1,.46" transform="translate(-31.49 -19.69)" style="fill:#fff;fill-rule:evenodd"/></g></g></g></svg>