<svg xmlns="http://www.w3.org/2000/svg" xmlns:xlink="http://www.w3.org/1999/xlink" viewBox="0 0 139.77 35.5"><defs><clipPath id="clip-path" transform="translate(-1.25 -22.25)"><rect width="142.5" height="80.25" style="fill:none"/></clipPath></defs><g id="Layer_2" data-name="Layer 2"><g id="Layer_1-2" data-name="Layer 1"><g style="clip-path:url(#clip-path)"><path d="M72.14,42.65a7.68,7.68,0,0,0-2.47.57,1.63,1.63,0,0,0-.92,1.68,1.7,1.7,0,0,0,1,1.69,2.82,2.82,0,0,0,3.77-1.89,5.16,5.16,0,0,0,.16-1.32c0-.89,0-.94-.08-.93l-1.45.2m16.6-4.31a2.48,2.48,0,0,0-1.25.75,4.22,4.22,0,0,0-1.09,2.19l0,.23.49,0c.27,0,1.57,0,2.88,0h2.39v-.17a6.27,6.27,0,0,0-.09-.7,2.82,2.82,0,0,0-1.27-2,2.85,2.85,0,0,0-2-.2m22.3-.09a3.13,3.13,0,0,0-2.44,1.84,4.62,4.62,0,0,0-.48,1.74,4.91,4.91,0,0,0,1.13,4.05,3.08,3.08,0,0,0,2.59.93,2.81,2.81,0,0,0,2.19-1,4,4,0,0,0,.89-1.79,6.09,6.09,0,0,0,.1-1.6,4.63,4.63,0,0,0-.5-2.55A3.17,3.17,0,0,0,111,38.25m8.34,4.28V48H121v-11h-1.61ZM82.21,37a3.19,3.19,0,0,0-2,2l-.16.42V37.05h-1.6V48h1.6V45c0-1.8,0-3.24.07-3.51A3.6,3.6,0,0,1,81.8,38.6a1.58,1.58,0,0,1,.89-.16,1.5,1.5,0,0,1,.88.16l.31.15v-.87c0-.78,0-.88-.11-.92a5.07,5.07,0,0,0-1.56,0m46.39,0a3.41,3.41,0,0,0-1.75,1,4.3,4.3,0,0,0-.62.74l-.18.3V38l0-.93h-1.6V48H126l0-3.52c0-3.89,0-3.79.43-4.63A2.69,2.69,0,0,1,129,38.24c1.33,0,2.11.76,2.38,2.31,0,.24.07,1.71.07,3.91l0,3.53h.81l.82,0V44.49c0-2.11,0-3.76-.07-4.1-.22-2-1.12-3.17-2.63-3.49a4.84,4.84,0,0,0-1.78,0m-18.08,0a4.74,4.74,0,0,0-3.7,3.27,6.68,6.68,0,0,0-.34,2.72,5.52,5.52,0,0,0,.19,1.63,4.75,4.75,0,0,0,4,3.68,7.63,7.63,0,0,0,2.35-.12c2.74-.73,4.18-3.6,3.6-7.12a4.72,4.72,0,0,0-3.29-4,8.46,8.46,0,0,0-2.76-.09m-40.13,0a6.3,6.3,0,0,0-2.12.81l-.16.12v1.71l.4-.3a5.46,5.46,0,0,1,.87-.53,3.88,3.88,0,0,1,2-.44,2.19,2.19,0,0,1,1,.12,2.43,2.43,0,0,1,1.18,2.27l0,.39-1.81.28a9,9,0,0,0-3,.71,3.07,3.07,0,0,0-1.71,2.3,3.13,3.13,0,0,0,2.1,3.77,5.46,5.46,0,0,0,2.06.06,3.42,3.42,0,0,0,2.08-1.46l.29-.43,0,.87V48h1.61l0-4.14c0-4,0-4.14-.15-4.59A3.06,3.06,0,0,0,72.7,36.9a8.51,8.51,0,0,0-2.31,0m18.17-.06a4.45,4.45,0,0,0-2.62,1.68,6.8,6.8,0,0,0-1.25,4.76c.27,3,1.82,4.79,4.4,4.95a6.77,6.77,0,0,0,3.27-.63c.73-.38.71-.35.71-1.25a3.82,3.82,0,0,0,0-.76,2.47,2.47,0,0,0-.33.24,6,6,0,0,1-1.8.85,4.12,4.12,0,0,1-2.75-.22,3.3,3.3,0,0,1-1.63-2.16A5.91,5.91,0,0,1,86.35,43s1.69,0,3.73,0h3.7v-.25a14.55,14.55,0,0,0-.26-2.6,3.89,3.89,0,0,0-3.86-3.29,4.33,4.33,0,0,0-1.1.06M10.28,34.68A3.7,3.7,0,0,0,7.22,36.5,1.65,1.65,0,0,0,7,37.58a2,2,0,0,0,.63,1.75,5.6,5.6,0,0,0,1.86,1.22l1.31.62c1,.46,1.33.83,1.33,1.36s-.27.85-.93,1.1A5.56,5.56,0,0,1,7.37,43L7,42.81v2l.23.09a7.5,7.5,0,0,0,2.72.48,5.08,5.08,0,0,0,3.26-.69,2.59,2.59,0,0,0,1.13-2.08A3.13,3.13,0,0,0,14,41c-.35-.64-1.17-1.2-2.75-1.86a8.37,8.37,0,0,1-1.66-.82,1,1,0,0,1,0-1.68,2.73,2.73,0,0,1,1.69-.34,4.47,4.47,0,0,1,2.15.42l.43.19V35l-.52-.12c-.28-.07-.68-.15-.87-.18a12.43,12.43,0,0,0-2.2,0m87.91-.42s0,1.45,0,3.19v3.17l1.29,0a10.47,10.47,0,0,0,1.74-.13,2.94,2.94,0,0,0,2.42-2.27,5,5,0,0,0,.07-.87,3.42,3.42,0,0,0-.3-1.56,2.41,2.41,0,0,0-1.14-1.13,5.47,5.47,0,0,0-2.64-.38c-.76,0-1.4,0-1.41,0m39.3-.15-.71.25V35.7l0,1.35h-1.83v1.42h1.83v3.58a33.39,33.39,0,0,0,.09,4,2.36,2.36,0,0,0,1.55,2,3.73,3.73,0,0,0,2.36-.06l.27-.12v-.71a2.57,2.57,0,0,0-.05-.72s-.09.05-.13.09a1.76,1.76,0,0,1-1.13.26,1.3,1.3,0,0,1-1.25-.93,37.2,37.2,0,0,1-.09-3.79l0-3.57h1.32l1.32,0V37.08l-1.32,0h-1.32v-1.6c0-1.24,0-1.6-.07-1.6s-.39.12-.79.26M96.56,40.34V48h1.6V42.21h1.17A9.78,9.78,0,0,0,102,42a4.74,4.74,0,0,0,3.32-3.61,7.34,7.34,0,0,0-.09-2.7,3.92,3.92,0,0,0-2-2.42c-1-.52-1.14-.54-4.07-.56l-2.57,0Zm-48.43-7.8a5,5,0,0,0-2.61,1.37,3.32,3.32,0,0,0-1,2.58,3.2,3.2,0,0,0,1.08,2.58,12.57,12.57,0,0,0,2.93,2c2.31,1.28,2.7,1.62,3,2.54a3.71,3.71,0,0,1,0,1.41,2.08,2.08,0,0,1-1.16,1.34,6.46,6.46,0,0,1-5.56-.78,2.13,2.13,0,0,0-.3-.21,7.7,7.7,0,0,0,0,1v1l.19.11a7.59,7.59,0,0,0,1.94.6,9.5,9.5,0,0,0,3.1,0,4,4,0,0,0,3.4-2.6,3.37,3.37,0,0,0,.17-1.29,3.08,3.08,0,0,0-.43-1.86,8,8,0,0,0-3.45-2.79c-2.24-1.19-2.86-1.7-3.09-2.55a3,3,0,0,1,0-1.44,2.67,2.67,0,0,1,1.91-1.47,7.73,7.73,0,0,1,2.54,0,5.43,5.43,0,0,1,1.59.6l.34.2v-1c0-.7,0-1-.08-1a4.39,4.39,0,0,0-1.31-.39,12.5,12.5,0,0,0-3.18,0m71.57-.38a1.19,1.19,0,0,0-.07,1.88,1.08,1.08,0,0,0,1.56-.4,1.3,1.3,0,0,0-.12-1.2,1,1,0,0,0-1.37-.28M56,39.88l0,8.11h1.6l0-3.62,0-3.62.16-.43A2.88,2.88,0,0,1,61,38.24c1,.12,1.58.71,1.91,1.88.12.44.13.59.15,4.18l0,3.72h1.59V44.33c0-2,0-3.89-.06-4.13a4.16,4.16,0,0,0-1-2.46,3.12,3.12,0,0,0-2.5-.93,3.73,3.73,0,0,0-1.93.48,5.48,5.48,0,0,0-1.35,1.32.79.79,0,0,1-.15.22s0-1.58,0-3.51V31.8h-.82l-.81,0ZM18.79,22.29A10.23,10.23,0,0,0,11.21,27a11.36,11.36,0,0,0-1.29,3.18l-.1.49H6.19c-4,0-3.93,0-4.36.35a2,2,0,0,0-.38.49l-.18.31v8c0,7,0,8.07.07,8.33a1.65,1.65,0,0,0,.86,1c.29.13.31.13,6.05.14H14l0,.37a7.66,7.66,0,0,0,0,1,7.16,7.16,0,0,0,4.91,6.66,7.46,7.46,0,0,0,4.65,0,7.3,7.3,0,0,0,4.71-6.07l0-.27.62,0a9.28,9.28,0,0,0,8.47-7.49,11,11,0,0,0,0-3.44,9.34,9.34,0,0,0-6.78-7.34,5,5,0,0,1-.58-.17s-.05-.37-.08-.78a10.07,10.07,0,0,0-.46-2.44A10.18,10.18,0,0,0,23,22.76a11,11,0,0,0-4.16-.47" transform="translate(-1.25 -22.25)" style="fill:#fff;fill-rule:evenodd"/></g></g></g></svg>