<svg xmlns="http://www.w3.org/2000/svg" xmlns:xlink="http://www.w3.org/1999/xlink" viewBox="0 0 160.48 32.62"><defs><clipPath id="clip-path" transform="translate(-0.33 -6.54)"><rect width="161.25" height="45.75" style="fill:none"/></clipPath></defs><g id="Layer_2" data-name="Layer 2"><g id="Layer_1-2" data-name="Layer 1"><g style="clip-path:url(#clip-path)"><path d="M148.82,21a4.46,4.46,0,0,0-3.33,2.73,8.12,8.12,0,0,0-.55,3.43c0,2.94,1,4.91,2.79,5.76a5.72,5.72,0,0,0,3.8,0c1.82-.85,2.76-2.85,2.76-5.87,0-2.32-.59-4-1.73-5.07a4.58,4.58,0,0,0-3.74-1m-53.34-.7A5.58,5.58,0,0,0,91.82,25c-.1.58-.08.64.16.71a26.37,26.37,0,0,0,5.13.07c2-.4,3-1.27,3-2.79,0-1.69-1.43-2.89-3.42-2.86a4.89,4.89,0,0,0-1.2.17m-14.62-5a6.23,6.23,0,0,0-2.45,1.13,9,9,0,0,0-2,2.63l-.36.75V15.46l-3.3,0-3.3,0V38.66l3.3,0,3.3,0V32.35c0-7,0-7.63.71-8.62.8-1.18,2.11-1.66,4.53-1.66h1.54v-7h-.59a8.2,8.2,0,0,0-1.42.19m66.64-.14c-4.53.76-7.46,3.52-8.69,8.19a11.53,11.53,0,0,0-.29,3.76,11.45,11.45,0,0,0,.34,3.89,11.13,11.13,0,0,0,2.94,5.25,9.63,9.63,0,0,0,4.41,2.57,8.92,8.92,0,0,0,3.37.35,10.79,10.79,0,0,0,3.12-.23c5-1.34,7.77-5.16,8.08-10.95.35-6.52-2.71-11.36-8-12.64a16,16,0,0,0-5.26-.19m-52.18-.1c-.24,0-.92.17-1.51.31-4.28,1-7.34,4.41-8.25,9.12a20,20,0,0,0,0,5.78,9.8,9.8,0,0,0,6.88,8.13,17,17,0,0,0,5.71.75,19.29,19.29,0,0,0,6.4-.92l1.21-.39V32.2l-.6.19a22.08,22.08,0,0,1-6.88,1.21c-2.42,0-3.76-.39-4.9-1.43a5.47,5.47,0,0,1-1.51-2.56l-.08-.39.92.09c.5.05,1.9.13,3.11.18,4.65.19,7.68-.55,9.31-2.28,2.25-2.39,1.89-6.56-.82-9.29a10.75,10.75,0,0,0-9-2.87m-76-2.37a1.53,1.53,0,0,0-.54.65,37.5,37.5,0,0,0-.14,4.76c0,3.89,0,4.4.22,4.79.36.72.54.75,3.78.76s3.48-.06,3.77-.69a31.84,31.84,0,0,0,.15-5V13.33l-.36-.41-.37-.41-3.06,0c-2.84,0-3.09,0-3.45.2M7.1,12.57a1.74,1.74,0,0,0-.53.45c-.27.34-.27.35-.27,8.63,0,9,0,8.89.71,9.16a26.53,26.53,0,0,0,3.32.12h3l.41-.37.41-.36,0-8.15c0-5.69,0-8.3-.1-8.63a1.27,1.27,0,0,0-.55-.73c-.36-.22-.64-.24-3.29-.23a26.79,26.79,0,0,0-3.16.11m38.05-.63v3.15h7.42V38.73h7.17V15.09H67V8.8H45.15Zm80.38,8.15c0,12.57.06,13.6.27,14.29a6,6,0,0,0,2.66,3.6,8.28,8.28,0,0,0,4.66.85,9,9,0,0,0,2.06-.17,13.51,13.51,0,0,0,.1-2.94l0-2.79-.88,0c-1,0-1.6-.3-1.91-.87-.21-.38-.23-1.23-.26-13l0-12.54h-6.67ZM111.79,20c0,13,0,13.47.25,14.42a5.64,5.64,0,0,0,4.48,4.28,16.28,16.28,0,0,0,4.82,0,13.05,13.05,0,0,0,.11-2.94l0-2.79-.88,0a3.53,3.53,0,0,1-1.29-.25c-.83-.44-.78.35-.78-13.53V6.54h-6.67ZM2.85,6.74A3.82,3.82,0,0,0,.67,8.8l-.34.69V35.77l.27.59a4.39,4.39,0,0,0,2,2l.66.29h26.4l.72-.35a4.17,4.17,0,0,0,1.91-2l.27-.58V9.49l-.36-.71a4.61,4.61,0,0,0-1-1.28c-1.14-1-.18-1-14.82-1-11,0-13.1,0-13.52.19" transform="translate(-0.33 -6.54)" style="fill:#fff;fill-rule:evenodd"/></g></g></g></svg>